{"asset":{"version":"2.0","generator":"THREE.GLTFExporter"},"scenes":[{"name":"AuxScene","nodes":[0]}],"scene":0,"nodes":[{"mesh":0}],"bufferViews":[{"buffer":0,"byteOffset":0,"byteLength":1368,"target":34962,"byteStride":12},{"buffer":0,"byteOffset":1368,"byteLength":1368,"target":34962,"byteStride":12},{"buffer":0,"byteOffset":2736,"byteLength":912,"target":34962,"byteStride":8},{"buffer":0,"byteOffset":3648,"byteLength":912,"target":34962,"byteStride":8},{"buffer":0,"byteOffset":4560,"byteLength":192,"target":34963},{"buffer":0,"byteOffset":4752,"byteLength":36,"target":34963}],"buffers":[{"byteLength":4788,"uri":"data:application/octet-stream;base64,"}],"accessors":[{"bufferView":0,"componentType":5126,"count":114,"max":[8,2,1.7763568394002505e-15],"min":[-3,-3,-1.7763568394002505e-15],"type":"VEC3"},{"bufferView":1,"componentType":5126,"count":114,"max":[3.552713678800501e-15,1.7763568394002505e-15,1],"min":[-3.552713678800501e-15,-1.7763568394002505e-15,1],"type":"VEC3"},{"bufferView":2,"componentType":5126,"count":114,"max":[103,403],"min":[0.5,0.1875],"type":"VEC2"},{"bufferView":3,"componentType":5126,"count":114,"max":[3,403],"min":[-1,0],"type":"VEC2"},{"bufferView":4,"componentType":5123,"count":96,"max":[95],"min":[0],"type":"SCALAR"},{"bufferView":5,"componentType":5123,"count":18,"max":[113],"min":[96],"type":"SCALAR"}],"materials":[{"pbrMetallicRoughness":{"metallicFactor":0.5,"roughnessFactor":0.5,"baseColorTexture":{"index":0}},"alphaMode":"MASK","alphaCutoff":0.01},{"pbrMetallicRoughness":{"metallicFactor":0.5,"roughnessFactor":0.5,"baseColorTexture":{"index":1}},"alphaMode":"MASK","alphaCutoff":0.01}],"textures":[{"sampler":0,"source":0},{"sampler":1,"source":1}],"samplers":[{"magFilter":9728,"minFilter":9728,"wrapS":33071,"wrapT":33071},{"magFilter":9728,"minFilter":9728,"wrapS":33071,"wrapT":33071}],"images":[{"mimeType":"image/png","uri":"data:image/png;base64,"},{"mimeType":"image/png","uri":"data:image/png;base64,"}],"meshes":[{"primitives":[{"mode":4,"attributes":{"POSITION":0,"NORMAL":1,"TEXCOORD_0":2,"_UVANIMATION":3},"indices":4,"material":0},{"mode":4,"attributes":{"POSITION":0,"NORMAL":1,"TEXCOORD_0":2,"_UVANIMATION":3},"indices":5,"material":1}]}]}