o Default
v 9.37330629898549e-17 0 0
v 5.378222463701379e-16 2 2
v 9.37330629898549e-17 2 0
v 5.378222463701379e-16 0 2
v 3.336645420713941e-17 -6 0
v 7.160234200936618e-16 -4 2
v 2.7193421024359916e-16 -4 0
v 4.774556375874224e-16 -6 2
v 2.7193421024359916e-16 -4 0
v 5.027073838109676e-16 -2 2
v 5.861816072601521e-17 -2 0
v 7.160234200936618e-16 -4 2
v 5.861816072601521e-17 -2 0
v 5.378222463701379e-16 0 2
v 9.37330629898549e-17 0 0
v 5.027074367505268e-16 -2 2
vt 100 100
vt 100 300
vt 100 200
vt 100 100
vt 100 400
vt 100 300
vt 103 100
vt 103 300
vt 103 200
vt 103 100
vt 103 400
vt 103 300
vt 102 100
vt 102 300
vt 102 200
vt 102 100
vt 102 400
vt 102 300
vt 101 101
vt 101 301
vt 101 201
vt 101 101
vt 101 401
vt 101 301
vn -1 0 2.220445916901415e-16
vn -1 0 2.220445916901415e-16
vn -1 0 2.220445916901415e-16
vn -1 0 2.220445916901415e-16
vn -1 0 2.220445916901415e-16
vn -1 0 2.220445916901415e-16
vn -1 1.1928387801822987e-16 2.220446049250313e-16
vn -1 1.1928387801822987e-16 2.220446049250313e-16
vn -1 1.1928387801822987e-16 2.220446049250313e-16
vn -1 1.1928389125311968e-16 2.220445916901415e-16
vn -1 1.1928389125311968e-16 2.220445916901415e-16
vn -1 1.1928389125311968e-16 2.220445916901415e-16
vn -1 -1.0665802475879198e-16 2.220446115424762e-16
vn -1 -1.0665802475879198e-16 2.220446115424762e-16
vn -1 -1.0665802475879198e-16 2.220446115424762e-16
vn -1 -1.0665801814134707e-16 2.220446049250313e-16
vn -1 -1.0665801814134707e-16 2.220446049250313e-16
vn -1 -1.0665801814134707e-16 2.220446049250313e-16
vn -1 1.7557451131919847e-17 2.220445916901415e-16
vn -1 1.7557451131919847e-17 2.220445916901415e-16
vn -1 1.7557451131919847e-17 2.220445916901415e-16
vn -1 1.7557404809805544e-17 2.220446380122558e-16
vn -1 1.7557404809805544e-17 2.220446380122558e-16
vn -1 1.7557404809805544e-17 2.220446380122558e-16
g Scene
usemtl material1
f 1/1/1 2/2/2 3/3/3
f 1/4/4 4/5/5 2/6/6
f 5/7/7 6/8/8 7/9/9
f 5/10/10 8/11/11 6/12/12
f 9/13/13 10/14/14 11/15/15
f 9/16/16 12/17/17 10/18/18
f 13/19/19 14/20/20 15/21/21
f 13/22/22 16/23/23 14/24/24
